<svg width="33" height="34" viewBox="0 0 33 34" fill="none" xmlns="http://www.w3.org/2000/svg">
<mask id="path-1-inside-1_1342_620" fill="white">
<path d="M20.7391 12.3636C21.5504 12.3636 22.3285 12.73 22.9022 13.3821C23.4759 14.0342 23.7981 14.9187 23.7981 15.8409V25.4985C23.7981 27.7532 23.0102 29.9156 21.6076 31.51C20.205 33.1043 18.3027 34 16.3191 34C14.3355 34 12.4332 33.1043 11.0306 31.51C9.62798 29.9156 8.84001 27.7532 8.84001 25.4985V15.8409C8.84001 14.9187 9.16231 14.0342 9.73599 13.3821C10.3097 12.73 11.0878 12.3636 11.8991 12.3636H20.7391ZM20.7391 14.6818H11.8991C11.6286 14.6818 11.3693 14.8039 11.178 15.0213C10.9868 15.2387 10.8794 15.5335 10.8794 15.8409V25.4985C10.8794 27.1384 11.4525 28.7111 12.4726 29.8708C13.4928 31.0304 14.8764 31.6818 16.3191 31.6818C17.7618 31.6818 19.1454 31.0304 20.1655 29.8708C21.1857 28.7111 21.7588 27.1384 21.7588 25.4985V15.8409C21.7588 15.5335 21.6513 15.2387 21.4601 15.0213C21.2689 14.8039 21.0095 14.6818 20.7391 14.6818ZM3.05906 12.3636H8.70949C8.16349 13.0095 7.7799 13.8101 7.59871 14.6818H3.05906C2.78863 14.6818 2.52926 14.8039 2.33804 15.0213C2.14681 15.2387 2.03938 15.5335 2.03938 15.8409V23.953C2.03884 24.7286 2.20948 25.4919 2.53567 26.1731C2.86186 26.8544 3.33318 27.4317 3.90646 27.8522C4.47975 28.2728 5.1367 28.5231 5.81714 28.5804C6.49759 28.6376 7.17979 28.4999 7.80129 28.1798C7.98212 28.9371 8.2418 29.6573 8.5681 30.3311C7.63662 30.7938 6.6184 30.9854 5.60545 30.8886C4.59249 30.7918 3.61672 30.4095 2.76631 29.7765C1.9159 29.1435 1.21766 28.2795 0.734677 27.2628C0.251696 26.246 -0.000801363 25.1085 1.91061e-06 23.953V15.8409C1.91061e-06 14.9187 0.322295 14.0342 0.89598 13.3821C1.46967 12.73 2.24775 12.3636 3.05906 12.3636ZM29.5709 12.3636C30.3823 12.3636 31.1603 12.73 31.734 13.3821C32.3077 14.0342 32.63 14.9187 32.63 15.8409V23.9545C32.6304 25.1093 32.3779 26.2459 31.8952 27.2619C31.4125 28.2779 30.7148 29.1414 29.8652 29.7742C29.0155 30.4071 28.0406 30.7896 27.0284 30.8871C26.0162 30.9845 24.9986 30.794 24.0673 30.3326L24.1435 30.175C24.4344 29.5475 24.6696 28.8815 24.8382 28.1829C25.4594 28.5006 26.1407 28.6364 26.8199 28.578C27.4992 28.5195 28.1547 28.2686 28.7267 27.8481C29.2987 27.4277 29.7689 26.8511 30.0945 26.1709C30.4201 25.4908 30.5907 24.7288 30.5906 23.9545V15.8409C30.5906 15.5338 30.4834 15.2392 30.2924 15.0219C30.1015 14.8045 29.8425 14.6822 29.5723 14.6818H25.0408C24.8592 13.8099 24.4752 13.0093 23.9287 12.3636H29.5709ZM16.315 0C16.9399 -1.49691e-08 17.5587 0.13991 18.136 0.411742C18.7133 0.683575 19.2379 1.08201 19.6798 1.58429C20.1217 2.08657 20.4722 2.68286 20.7113 3.33912C20.9505 3.99538 21.0735 4.69876 21.0735 5.40909C21.0735 6.11942 20.9505 6.8228 20.7113 7.47906C20.4722 8.13532 20.1217 8.73162 19.6798 9.2339C19.2379 9.73618 18.7133 10.1346 18.136 10.4064C17.5587 10.6783 16.9399 10.8182 16.315 10.8182C15.053 10.8182 13.8426 10.2483 12.9502 9.2339C12.0578 8.21949 11.5565 6.84367 11.5565 5.40909C11.5565 3.97451 12.0578 2.59869 12.9502 1.58429C13.8426 0.569885 15.053 3.02315e-08 16.315 0ZM27.1957 1.54545C27.7314 1.54545 28.2618 1.66538 28.7566 1.89838C29.2515 2.13138 29.7011 2.47289 30.0799 2.90341C30.4586 3.33394 30.759 3.84505 30.964 4.40756C31.169 4.97007 31.2745 5.57296 31.2745 6.18182C31.2745 6.79067 31.169 7.39357 30.964 7.95608C30.759 8.51859 30.4586 9.0297 30.0799 9.46022C29.7011 9.89075 29.2515 10.2323 28.7566 10.4653C28.2618 10.6983 27.7314 10.8182 27.1957 10.8182C26.114 10.8182 25.0765 10.3297 24.3116 9.46022C23.5467 8.59074 23.117 7.41146 23.117 6.18182C23.117 4.95218 23.5467 3.7729 24.3116 2.90341C25.0765 2.03393 26.114 1.54545 27.1957 1.54545ZM5.43426 1.54545C5.96989 1.54545 6.50027 1.66538 6.99513 1.89838C7.48998 2.13138 7.93962 2.47289 8.31837 2.90341C8.69711 3.33394 8.99755 3.84505 9.20253 4.40756C9.40751 4.97007 9.51301 5.57296 9.51301 6.18182C9.51301 6.79067 9.40751 7.39357 9.20253 7.95608C8.99755 8.51859 8.69711 9.0297 8.31837 9.46022C7.93962 9.89075 7.48998 10.2323 6.99513 10.4653C6.50027 10.6983 5.96989 10.8182 5.43426 10.8182C4.3525 10.8182 3.31506 10.3297 2.55014 9.46022C1.78523 8.59074 1.35551 7.41146 1.35551 6.18182C1.35551 4.95218 1.78523 3.7729 2.55014 2.90341C3.31506 2.03393 4.3525 1.54545 5.43426 1.54545ZM16.315 2.31818C15.5938 2.31818 14.9022 2.64383 14.3923 3.22349C13.8823 3.80315 13.5958 4.58933 13.5958 5.40909C13.5958 6.22885 13.8823 7.01504 14.3923 7.59469C14.9022 8.17435 15.5938 8.5 16.315 8.5C17.0362 8.5 17.7278 8.17435 18.2377 7.59469C18.7477 7.01504 19.0342 6.22885 19.0342 5.40909C19.0342 4.58933 18.7477 3.80315 18.2377 3.22349C17.7278 2.64383 17.0362 2.31818 16.315 2.31818ZM27.1957 3.86364C26.9279 3.86364 26.6627 3.9236 26.4153 4.0401C26.1679 4.1566 25.9431 4.32735 25.7537 4.54262C25.5643 4.75788 25.4141 5.01343 25.3116 5.29469C25.2091 5.57594 25.1564 5.87739 25.1564 6.18182C25.1564 6.48625 25.2091 6.78769 25.3116 7.06895C25.4141 7.3502 25.5643 7.60576 25.7537 7.82102C25.9431 8.03628 26.1679 8.20704 26.4153 8.32354C26.6627 8.44004 26.9279 8.5 27.1957 8.5C27.7366 8.5 28.2553 8.25576 28.6378 7.82102C29.0203 7.38628 29.2351 6.79664 29.2351 6.18182C29.2351 5.567 29.0203 4.97736 28.6378 4.54262C28.2553 4.10787 27.7366 3.86364 27.1957 3.86364ZM5.43426 3.86364C5.16644 3.86364 4.90125 3.9236 4.65382 4.0401C4.40639 4.1566 4.18157 4.32735 3.9922 4.54262C3.80283 4.75788 3.65261 5.01343 3.55012 5.29469C3.44763 5.57594 3.39488 5.87739 3.39488 6.18182C3.39488 6.48625 3.44763 6.78769 3.55012 7.06895C3.65261 7.3502 3.80283 7.60576 3.9922 7.82102C4.18157 8.03628 4.40639 8.20704 4.65382 8.32354C4.90125 8.44004 5.16644 8.5 5.43426 8.5C5.97513 8.5 6.49385 8.25576 6.87631 7.82102C7.25877 7.38628 7.47363 6.79664 7.47363 6.18182C7.47363 5.567 7.25877 4.97736 6.87631 4.54262C6.49385 4.10787 5.97513 3.86364 5.43426 3.86364Z"/>
</mask>
<path d="M20.7391 12.3636C21.5504 12.3636 22.3285 12.73 22.9022 13.3821C23.4759 14.0342 23.7981 14.9187 23.7981 15.8409V25.4985C23.7981 27.7532 23.0102 29.9156 21.6076 31.51C20.205 33.1043 18.3027 34 16.3191 34C14.3355 34 12.4332 33.1043 11.0306 31.51C9.62798 29.9156 8.84001 27.7532 8.84001 25.4985V15.8409C8.84001 14.9187 9.16231 14.0342 9.73599 13.3821C10.3097 12.73 11.0878 12.3636 11.8991 12.3636H20.7391ZM20.7391 14.6818H11.8991C11.6286 14.6818 11.3693 14.8039 11.178 15.0213C10.9868 15.2387 10.8794 15.5335 10.8794 15.8409V25.4985C10.8794 27.1384 11.4525 28.7111 12.4726 29.8708C13.4928 31.0304 14.8764 31.6818 16.3191 31.6818C17.7618 31.6818 19.1454 31.0304 20.1655 29.8708C21.1857 28.7111 21.7588 27.1384 21.7588 25.4985V15.8409C21.7588 15.5335 21.6513 15.2387 21.4601 15.0213C21.2689 14.8039 21.0095 14.6818 20.7391 14.6818ZM3.05906 12.3636H8.70949C8.16349 13.0095 7.7799 13.8101 7.59871 14.6818H3.05906C2.78863 14.6818 2.52926 14.8039 2.33804 15.0213C2.14681 15.2387 2.03938 15.5335 2.03938 15.8409V23.953C2.03884 24.7286 2.20948 25.4919 2.53567 26.1731C2.86186 26.8544 3.33318 27.4317 3.90646 27.8522C4.47975 28.2728 5.1367 28.5231 5.81714 28.5804C6.49759 28.6376 7.17979 28.4999 7.80129 28.1798C7.98212 28.9371 8.2418 29.6573 8.5681 30.3311C7.63662 30.7938 6.6184 30.9854 5.60545 30.8886C4.59249 30.7918 3.61672 30.4095 2.76631 29.7765C1.9159 29.1435 1.21766 28.2795 0.734677 27.2628C0.251696 26.246 -0.000801363 25.1085 1.91061e-06 23.953V15.8409C1.91061e-06 14.9187 0.322295 14.0342 0.89598 13.3821C1.46967 12.73 2.24775 12.3636 3.05906 12.3636ZM29.5709 12.3636C30.3823 12.3636 31.1603 12.73 31.734 13.3821C32.3077 14.0342 32.63 14.9187 32.63 15.8409V23.9545C32.6304 25.1093 32.3779 26.2459 31.8952 27.2619C31.4125 28.2779 30.7148 29.1414 29.8652 29.7742C29.0155 30.4071 28.0406 30.7896 27.0284 30.8871C26.0162 30.9845 24.9986 30.794 24.0673 30.3326L24.1435 30.175C24.4344 29.5475 24.6696 28.8815 24.8382 28.1829C25.4594 28.5006 26.1407 28.6364 26.8199 28.578C27.4992 28.5195 28.1547 28.2686 28.7267 27.8481C29.2987 27.4277 29.7689 26.8511 30.0945 26.1709C30.4201 25.4908 30.5907 24.7288 30.5906 23.9545V15.8409C30.5906 15.5338 30.4834 15.2392 30.2924 15.0219C30.1015 14.8045 29.8425 14.6822 29.5723 14.6818H25.0408C24.8592 13.8099 24.4752 13.0093 23.9287 12.3636H29.5709ZM16.315 0C16.9399 -1.49691e-08 17.5587 0.13991 18.136 0.411742C18.7133 0.683575 19.2379 1.08201 19.6798 1.58429C20.1217 2.08657 20.4722 2.68286 20.7113 3.33912C20.9505 3.99538 21.0735 4.69876 21.0735 5.40909C21.0735 6.11942 20.9505 6.8228 20.7113 7.47906C20.4722 8.13532 20.1217 8.73162 19.6798 9.2339C19.2379 9.73618 18.7133 10.1346 18.136 10.4064C17.5587 10.6783 16.9399 10.8182 16.315 10.8182C15.053 10.8182 13.8426 10.2483 12.9502 9.2339C12.0578 8.21949 11.5565 6.84367 11.5565 5.40909C11.5565 3.97451 12.0578 2.59869 12.9502 1.58429C13.8426 0.569885 15.053 3.02315e-08 16.315 0ZM27.1957 1.54545C27.7314 1.54545 28.2618 1.66538 28.7566 1.89838C29.2515 2.13138 29.7011 2.47289 30.0799 2.90341C30.4586 3.33394 30.759 3.84505 30.964 4.40756C31.169 4.97007 31.2745 5.57296 31.2745 6.18182C31.2745 6.79067 31.169 7.39357 30.964 7.95608C30.759 8.51859 30.4586 9.0297 30.0799 9.46022C29.7011 9.89075 29.2515 10.2323 28.7566 10.4653C28.2618 10.6983 27.7314 10.8182 27.1957 10.8182C26.114 10.8182 25.0765 10.3297 24.3116 9.46022C23.5467 8.59074 23.117 7.41146 23.117 6.18182C23.117 4.95218 23.5467 3.7729 24.3116 2.90341C25.0765 2.03393 26.114 1.54545 27.1957 1.54545ZM5.43426 1.54545C5.96989 1.54545 6.50027 1.66538 6.99513 1.89838C7.48998 2.13138 7.93962 2.47289 8.31837 2.90341C8.69711 3.33394 8.99755 3.84505 9.20253 4.40756C9.40751 4.97007 9.51301 5.57296 9.51301 6.18182C9.51301 6.79067 9.40751 7.39357 9.20253 7.95608C8.99755 8.51859 8.69711 9.0297 8.31837 9.46022C7.93962 9.89075 7.48998 10.2323 6.99513 10.4653C6.50027 10.6983 5.96989 10.8182 5.43426 10.8182C4.3525 10.8182 3.31506 10.3297 2.55014 9.46022C1.78523 8.59074 1.35551 7.41146 1.35551 6.18182C1.35551 4.95218 1.78523 3.7729 2.55014 2.90341C3.31506 2.03393 4.3525 1.54545 5.43426 1.54545ZM16.315 2.31818C15.5938 2.31818 14.9022 2.64383 14.3923 3.22349C13.8823 3.80315 13.5958 4.58933 13.5958 5.40909C13.5958 6.22885 13.8823 7.01504 14.3923 7.59469C14.9022 8.17435 15.5938 8.5 16.315 8.5C17.0362 8.5 17.7278 8.17435 18.2377 7.59469C18.7477 7.01504 19.0342 6.22885 19.0342 5.40909C19.0342 4.58933 18.7477 3.80315 18.2377 3.22349C17.7278 2.64383 17.0362 2.31818 16.315 2.31818ZM27.1957 3.86364C26.9279 3.86364 26.6627 3.9236 26.4153 4.0401C26.1679 4.1566 25.9431 4.32735 25.7537 4.54262C25.5643 4.75788 25.4141 5.01343 25.3116 5.29469C25.2091 5.57594 25.1564 5.87739 25.1564 6.18182C25.1564 6.48625 25.2091 6.78769 25.3116 7.06895C25.4141 7.3502 25.5643 7.60576 25.7537 7.82102C25.9431 8.03628 26.1679 8.20704 26.4153 8.32354C26.6627 8.44004 26.9279 8.5 27.1957 8.5C27.7366 8.5 28.2553 8.25576 28.6378 7.82102C29.0203 7.38628 29.2351 6.79664 29.2351 6.18182C29.2351 5.567 29.0203 4.97736 28.6378 4.54262C28.2553 4.10787 27.7366 3.86364 27.1957 3.86364ZM5.43426 3.86364C5.16644 3.86364 4.90125 3.9236 4.65382 4.0401C4.40639 4.1566 4.18157 4.32735 3.9922 4.54262C3.80283 4.75788 3.65261 5.01343 3.55012 5.29469C3.44763 5.57594 3.39488 5.87739 3.39488 6.18182C3.39488 6.48625 3.44763 6.78769 3.55012 7.06895C3.65261 7.3502 3.80283 7.60576 3.9922 7.82102C4.18157 8.03628 4.40639 8.20704 4.65382 8.32354C4.90125 8.44004 5.16644 8.5 5.43426 8.5C5.97513 8.5 6.49385 8.25576 6.87631 7.82102C7.25877 7.38628 7.47363 6.79664 7.47363 6.18182C7.47363 5.567 7.25877 4.97736 6.87631 4.54262C6.49385 4.10787 5.97513 3.86364 5.43426 3.86364Z" fill="white" stroke="white" stroke-width="2" mask="url(#path-1-inside-1_1342_620)"/>
</svg>
