<svg width="35" height="35" viewBox="0 0 35 35" fill="none" xmlns="http://www.w3.org/2000/svg">
<path d="M5.83325 9.00735L29.1666 9.00736M23.3333 30.625H11.6666C10.0558 30.625 8.74992 29.2424 8.74992 27.5368V10.5515C8.74992 9.69868 9.40284 9.00735 10.2083 9.00735H24.7916C25.597 9.00735 26.2499 9.69868 26.2499 10.5515V27.5368C26.2499 29.2424 24.9441 30.625 23.3333 30.625ZM14.5833 9.00735H20.4166C21.222 9.00735 21.8749 8.31603 21.8749 7.46324V5.91912C21.8749 5.06633 21.222 4.375 20.4166 4.375H14.5833C13.7778 4.375 13.1249 5.06632 13.1249 5.91912V7.46324C13.1249 8.31603 13.7778 9.00735 14.5833 9.00735Z" stroke="white" stroke-width="2" stroke-linecap="round"/>
</svg>
