<svg width="45" height="50" viewBox="0 0 45 50" fill="none" xmlns="http://www.w3.org/2000/svg">
<path d="M30.2551 19.332C30.2551 21.605 29.431 23.7768 27.9767 25.3714C26.5237 26.9644 24.5634 27.8495 22.5302 27.8495C20.4971 27.8495 18.5368 26.9644 17.0838 25.3714C15.6294 23.7768 14.8054 21.605 14.8054 19.332C14.8054 17.0589 15.6294 14.8871 17.0838 13.2926C18.5368 11.6995 20.4971 10.8145 22.5302 10.8145C24.5634 10.8145 26.5237 11.6995 27.9767 13.2926C29.431 14.8871 30.2551 17.0589 30.2551 19.332Z" fill="white" stroke="white"/>
<path d="M6.86746 39.0098L7.32445 39.6368L7.70664 38.9616C9.5929 35.6294 13.7815 31.9643 22.5303 31.9643C31.2792 31.9643 35.465 35.6264 37.3541 38.9617L37.7363 39.6366L38.1932 39.0098C40.5435 35.7854 42.0126 31.9033 42.4361 27.8111C42.8595 23.719 42.2208 19.5776 40.5912 15.8624C38.9615 12.1471 36.4052 9.00513 33.2106 6.80299C30.0155 4.60044 26.3133 3.42887 22.5304 3.42865H22.5303C18.7474 3.42887 15.0451 4.60044 11.85 6.80299C8.65551 9.00513 6.09915 12.1471 4.46946 15.8624C2.83984 19.5776 2.20112 23.719 2.6246 27.8111C3.04809 31.9033 4.51718 35.7854 6.86746 39.0098ZM0.705811 25.3452C0.705811 18.9723 3.01533 12.8686 7.11393 8.37497C11.2111 3.88289 16.7577 1.36914 22.5303 1.36914C28.3029 1.36914 33.8495 3.88289 37.9467 8.37497C42.0453 12.8686 44.3548 18.9723 44.3548 25.3452C44.3548 31.7182 42.0453 37.8219 37.9467 42.3155C33.8495 46.8076 28.3029 49.3213 22.5303 49.3213C16.7577 49.3213 11.2111 46.8076 7.11393 42.3155C3.01533 37.8219 0.705811 31.7182 0.705811 25.3452Z" fill="white" stroke="white"/>
</svg>
