<svg width="36" height="34" viewBox="0 0 36 34" fill="none" xmlns="http://www.w3.org/2000/svg">
<mask id="path-1-inside-1_1317_268" fill="white">
<path d="M22.5119 12.3516C23.3926 12.3516 24.2372 12.7176 24.8599 13.3691C25.4827 14.0205 25.8325 14.9041 25.8325 15.8255V25.4736C25.8325 27.7261 24.9772 29.8864 23.4547 31.4792C21.9322 33.072 19.8672 33.9668 17.7141 33.9668C15.561 33.9668 13.496 33.072 11.9735 31.4792C10.451 29.8864 9.59569 27.7261 9.59569 25.4736V15.8255C9.59569 14.9041 9.94553 14.0205 10.5683 13.3691C11.191 12.7176 12.0356 12.3516 12.9162 12.3516H22.5119ZM22.5119 14.6675H12.9162C12.6227 14.6675 12.3412 14.7895 12.1336 15.0067C11.926 15.2238 11.8094 15.5183 11.8094 15.8255V25.4736C11.8094 27.1119 12.4315 28.6831 13.5388 29.8416C14.6462 31.0001 16.1481 31.6509 17.7141 31.6509C19.2801 31.6509 20.782 31.0001 21.8893 29.8416C22.9967 28.6831 23.6188 27.1119 23.6188 25.4736V15.8255C23.6188 15.5183 23.5022 15.2238 23.2946 15.0067C23.087 14.7895 22.8055 14.6675 22.5119 14.6675ZM3.32056 12.3516H9.45401C8.86133 12.9968 8.44495 13.7966 8.24828 14.6675H3.32056C3.02701 14.6675 2.74548 14.7895 2.5379 15.0067C2.33032 15.2238 2.21371 15.5183 2.21371 15.8255V23.9296C2.21313 24.7045 2.39835 25.4671 2.75243 26.1476C3.1065 26.8282 3.61811 27.4049 4.2404 27.8251C4.8627 28.2452 5.5758 28.4953 6.31441 28.5525C7.05302 28.6097 7.79355 28.4721 8.46817 28.1523C8.66445 28.9089 8.94633 29.6283 9.30053 30.3015C8.28943 30.7638 7.18417 30.9552 6.08462 30.8585C4.98507 30.7617 3.92589 30.3799 3.00278 29.7475C2.07968 29.115 1.32175 28.2519 0.79748 27.2362C0.273212 26.2204 -0.000869866 25.084 2.07394e-06 23.9296V15.8255C2.07394e-06 14.9041 0.349846 14.0205 0.972572 13.3691C1.5953 12.7176 2.4399 12.3516 3.32056 12.3516ZM32.0988 12.3516C32.9794 12.3516 33.824 12.7176 34.4468 13.3691C35.0695 14.0205 35.4193 14.9041 35.4193 15.8255V23.9312C35.4198 25.0848 35.1456 26.2203 34.6217 27.2353C34.0977 28.2504 33.3405 29.1129 32.4182 29.7452C31.4959 30.3775 30.4376 30.7595 29.3389 30.8569C28.2402 30.9543 27.1355 30.764 26.1247 30.3031L26.2074 30.1456C26.5232 29.5187 26.7785 28.8533 26.9615 28.1554C27.6358 28.4728 28.3753 28.6085 29.1126 28.5501C29.8499 28.4917 30.5615 28.241 31.1823 27.821C31.8032 27.4009 32.3137 26.8249 32.6671 26.1454C33.0205 25.466 33.2057 24.7047 33.2056 23.9312V15.8255C33.2056 15.5186 33.0892 15.2243 32.882 15.0072C32.6747 14.7901 32.3935 14.6679 32.1002 14.6675H27.1814C26.9843 13.7964 26.5674 12.9967 25.9742 12.3516H32.0988ZM17.7097 0C18.388 -1.49545e-08 19.0597 0.139774 19.6863 0.411341C20.313 0.682908 20.8825 1.08095 21.3621 1.58274C21.8417 2.08453 22.2222 2.68024 22.4818 3.33586C22.7414 3.99149 22.875 4.69418 22.875 5.40382C22.875 6.11345 22.7414 6.81615 22.4818 7.47177C22.2222 8.12739 21.8417 8.7231 21.3621 9.22489C20.8825 9.72668 20.313 10.1247 19.6863 10.3963C19.0597 10.6679 18.388 10.8076 17.7097 10.8076C16.3397 10.8076 15.0259 10.2383 14.0572 9.22489C13.0885 8.21148 12.5443 6.837 12.5443 5.40382C12.5443 3.97063 13.0885 2.59615 14.0572 1.58274C15.0259 0.569329 16.3397 3.0202e-08 17.7097 0ZM29.5205 1.54395C30.102 1.54395 30.6777 1.66375 31.2148 1.89653C31.752 2.1293 32.2401 2.47048 32.6512 2.90058C33.0623 3.33069 33.3884 3.8413 33.6109 4.40326C33.8334 4.96522 33.948 5.56753 33.948 6.17579C33.948 6.78405 33.8334 7.38636 33.6109 7.94832C33.3884 8.51028 33.0623 9.02089 32.6512 9.451C32.2401 9.8811 31.752 10.2223 31.2148 10.4551C30.6777 10.6878 30.102 10.8076 29.5205 10.8076C28.3463 10.8076 27.2202 10.3196 26.3899 9.451C25.5596 8.58236 25.0931 7.40423 25.0931 6.17579C25.0931 4.94735 25.5596 3.76922 26.3899 2.90058C27.2202 2.03194 28.3463 1.54395 29.5205 1.54395ZM5.8988 1.54395C6.48021 1.54395 7.05594 1.66375 7.59309 1.89653C8.13025 2.1293 8.61833 2.47048 9.02945 2.90058C9.44058 3.33069 9.7667 3.8413 9.98919 4.40326C10.2117 4.96522 10.3262 5.56753 10.3262 6.17579C10.3262 6.78405 10.2117 7.38636 9.98919 7.94832C9.7667 8.51028 9.44058 9.02089 9.02945 9.451C8.61833 9.8811 8.13025 10.2223 7.59309 10.4551C7.05594 10.6878 6.48021 10.8076 5.8988 10.8076C4.72457 10.8076 3.59844 10.3196 2.76814 9.451C1.93784 8.58236 1.47138 7.40423 1.47138 6.17579C1.47138 4.94735 1.93784 3.76922 2.76814 2.90058C3.59844 2.03194 4.72457 1.54395 5.8988 1.54395ZM17.7097 2.31592C16.9268 2.31592 16.1761 2.64125 15.6226 3.22034C15.069 3.79944 14.7581 4.58486 14.7581 5.40382C14.7581 6.22278 15.069 7.00819 15.6226 7.58729C16.1761 8.16638 16.9268 8.49171 17.7097 8.49171C18.4925 8.49171 19.2432 8.16638 19.7968 7.58729C20.3503 7.00819 20.6613 6.22278 20.6613 5.40382C20.6613 4.58486 20.3503 3.79944 19.7968 3.22034C19.2432 2.64125 18.4925 2.31592 17.7097 2.31592ZM29.5205 3.85987C29.2298 3.85987 28.942 3.91977 28.6734 4.03616C28.4048 4.15254 28.1608 4.32313 27.9552 4.53819C27.7496 4.75324 27.5866 5.00854 27.4753 5.28952C27.3641 5.57051 27.3068 5.87166 27.3068 6.17579C27.3068 6.47992 27.3641 6.78107 27.4753 7.06205C27.5866 7.34303 27.7496 7.59834 27.9552 7.81339C28.1608 8.02845 28.4048 8.19904 28.6734 8.31542C28.942 8.43181 29.2298 8.49171 29.5205 8.49171C30.1076 8.49171 30.6707 8.24771 31.0859 7.81339C31.501 7.37907 31.7342 6.79001 31.7342 6.17579C31.7342 5.56157 31.501 4.97251 31.0859 4.53819C30.6707 4.10387 30.1076 3.85987 29.5205 3.85987ZM5.8988 3.85987C5.60809 3.85987 5.32023 3.91977 5.05165 4.03616C4.78307 4.15254 4.53903 4.32313 4.33347 4.53819C4.12791 4.75324 3.96485 5.00854 3.8536 5.28952C3.74235 5.57051 3.68509 5.87166 3.68509 6.17579C3.68509 6.47992 3.74235 6.78107 3.8536 7.06205C3.96485 7.34303 4.12791 7.59834 4.33347 7.81339C4.53903 8.02845 4.78307 8.19904 5.05165 8.31542C5.32023 8.43181 5.60809 8.49171 5.8988 8.49171C6.48591 8.49171 7.04897 8.24771 7.46412 7.81339C7.87927 7.37907 8.1125 6.79001 8.1125 6.17579C8.1125 5.56157 7.87927 4.97251 7.46412 4.53819C7.04897 4.10387 6.48591 3.85987 5.8988 3.85987Z"/>
</mask>
<path d="M22.5119 12.3516C23.3926 12.3516 24.2372 12.7176 24.8599 13.3691C25.4827 14.0205 25.8325 14.9041 25.8325 15.8255V25.4736C25.8325 27.7261 24.9772 29.8864 23.4547 31.4792C21.9322 33.072 19.8672 33.9668 17.7141 33.9668C15.561 33.9668 13.496 33.072 11.9735 31.4792C10.451 29.8864 9.59569 27.7261 9.59569 25.4736V15.8255C9.59569 14.9041 9.94553 14.0205 10.5683 13.3691C11.191 12.7176 12.0356 12.3516 12.9162 12.3516H22.5119ZM22.5119 14.6675H12.9162C12.6227 14.6675 12.3412 14.7895 12.1336 15.0067C11.926 15.2238 11.8094 15.5183 11.8094 15.8255V25.4736C11.8094 27.1119 12.4315 28.6831 13.5388 29.8416C14.6462 31.0001 16.1481 31.6509 17.7141 31.6509C19.2801 31.6509 20.782 31.0001 21.8893 29.8416C22.9967 28.6831 23.6188 27.1119 23.6188 25.4736V15.8255C23.6188 15.5183 23.5022 15.2238 23.2946 15.0067C23.087 14.7895 22.8055 14.6675 22.5119 14.6675ZM3.32056 12.3516H9.45401C8.86133 12.9968 8.44495 13.7966 8.24828 14.6675H3.32056C3.02701 14.6675 2.74548 14.7895 2.5379 15.0067C2.33032 15.2238 2.21371 15.5183 2.21371 15.8255V23.9296C2.21313 24.7045 2.39835 25.4671 2.75243 26.1476C3.1065 26.8282 3.61811 27.4049 4.2404 27.8251C4.8627 28.2452 5.5758 28.4953 6.31441 28.5525C7.05302 28.6097 7.79355 28.4721 8.46817 28.1523C8.66445 28.9089 8.94633 29.6283 9.30053 30.3015C8.28943 30.7638 7.18417 30.9552 6.08462 30.8585C4.98507 30.7617 3.92589 30.3799 3.00278 29.7475C2.07968 29.115 1.32175 28.2519 0.79748 27.2362C0.273212 26.2204 -0.000869866 25.084 2.07394e-06 23.9296V15.8255C2.07394e-06 14.9041 0.349846 14.0205 0.972572 13.3691C1.5953 12.7176 2.4399 12.3516 3.32056 12.3516ZM32.0988 12.3516C32.9794 12.3516 33.824 12.7176 34.4468 13.3691C35.0695 14.0205 35.4193 14.9041 35.4193 15.8255V23.9312C35.4198 25.0848 35.1456 26.2203 34.6217 27.2353C34.0977 28.2504 33.3405 29.1129 32.4182 29.7452C31.4959 30.3775 30.4376 30.7595 29.3389 30.8569C28.2402 30.9543 27.1355 30.764 26.1247 30.3031L26.2074 30.1456C26.5232 29.5187 26.7785 28.8533 26.9615 28.1554C27.6358 28.4728 28.3753 28.6085 29.1126 28.5501C29.8499 28.4917 30.5615 28.241 31.1823 27.821C31.8032 27.4009 32.3137 26.8249 32.6671 26.1454C33.0205 25.466 33.2057 24.7047 33.2056 23.9312V15.8255C33.2056 15.5186 33.0892 15.2243 32.882 15.0072C32.6747 14.7901 32.3935 14.6679 32.1002 14.6675H27.1814C26.9843 13.7964 26.5674 12.9967 25.9742 12.3516H32.0988ZM17.7097 0C18.388 -1.49545e-08 19.0597 0.139774 19.6863 0.411341C20.313 0.682908 20.8825 1.08095 21.3621 1.58274C21.8417 2.08453 22.2222 2.68024 22.4818 3.33586C22.7414 3.99149 22.875 4.69418 22.875 5.40382C22.875 6.11345 22.7414 6.81615 22.4818 7.47177C22.2222 8.12739 21.8417 8.7231 21.3621 9.22489C20.8825 9.72668 20.313 10.1247 19.6863 10.3963C19.0597 10.6679 18.388 10.8076 17.7097 10.8076C16.3397 10.8076 15.0259 10.2383 14.0572 9.22489C13.0885 8.21148 12.5443 6.837 12.5443 5.40382C12.5443 3.97063 13.0885 2.59615 14.0572 1.58274C15.0259 0.569329 16.3397 3.0202e-08 17.7097 0ZM29.5205 1.54395C30.102 1.54395 30.6777 1.66375 31.2148 1.89653C31.752 2.1293 32.2401 2.47048 32.6512 2.90058C33.0623 3.33069 33.3884 3.8413 33.6109 4.40326C33.8334 4.96522 33.948 5.56753 33.948 6.17579C33.948 6.78405 33.8334 7.38636 33.6109 7.94832C33.3884 8.51028 33.0623 9.02089 32.6512 9.451C32.2401 9.8811 31.752 10.2223 31.2148 10.4551C30.6777 10.6878 30.102 10.8076 29.5205 10.8076C28.3463 10.8076 27.2202 10.3196 26.3899 9.451C25.5596 8.58236 25.0931 7.40423 25.0931 6.17579C25.0931 4.94735 25.5596 3.76922 26.3899 2.90058C27.2202 2.03194 28.3463 1.54395 29.5205 1.54395ZM5.8988 1.54395C6.48021 1.54395 7.05594 1.66375 7.59309 1.89653C8.13025 2.1293 8.61833 2.47048 9.02945 2.90058C9.44058 3.33069 9.7667 3.8413 9.98919 4.40326C10.2117 4.96522 10.3262 5.56753 10.3262 6.17579C10.3262 6.78405 10.2117 7.38636 9.98919 7.94832C9.7667 8.51028 9.44058 9.02089 9.02945 9.451C8.61833 9.8811 8.13025 10.2223 7.59309 10.4551C7.05594 10.6878 6.48021 10.8076 5.8988 10.8076C4.72457 10.8076 3.59844 10.3196 2.76814 9.451C1.93784 8.58236 1.47138 7.40423 1.47138 6.17579C1.47138 4.94735 1.93784 3.76922 2.76814 2.90058C3.59844 2.03194 4.72457 1.54395 5.8988 1.54395ZM17.7097 2.31592C16.9268 2.31592 16.1761 2.64125 15.6226 3.22034C15.069 3.79944 14.7581 4.58486 14.7581 5.40382C14.7581 6.22278 15.069 7.00819 15.6226 7.58729C16.1761 8.16638 16.9268 8.49171 17.7097 8.49171C18.4925 8.49171 19.2432 8.16638 19.7968 7.58729C20.3503 7.00819 20.6613 6.22278 20.6613 5.40382C20.6613 4.58486 20.3503 3.79944 19.7968 3.22034C19.2432 2.64125 18.4925 2.31592 17.7097 2.31592ZM29.5205 3.85987C29.2298 3.85987 28.942 3.91977 28.6734 4.03616C28.4048 4.15254 28.1608 4.32313 27.9552 4.53819C27.7496 4.75324 27.5866 5.00854 27.4753 5.28952C27.3641 5.57051 27.3068 5.87166 27.3068 6.17579C27.3068 6.47992 27.3641 6.78107 27.4753 7.06205C27.5866 7.34303 27.7496 7.59834 27.9552 7.81339C28.1608 8.02845 28.4048 8.19904 28.6734 8.31542C28.942 8.43181 29.2298 8.49171 29.5205 8.49171C30.1076 8.49171 30.6707 8.24771 31.0859 7.81339C31.501 7.37907 31.7342 6.79001 31.7342 6.17579C31.7342 5.56157 31.501 4.97251 31.0859 4.53819C30.6707 4.10387 30.1076 3.85987 29.5205 3.85987ZM5.8988 3.85987C5.60809 3.85987 5.32023 3.91977 5.05165 4.03616C4.78307 4.15254 4.53903 4.32313 4.33347 4.53819C4.12791 4.75324 3.96485 5.00854 3.8536 5.28952C3.74235 5.57051 3.68509 5.87166 3.68509 6.17579C3.68509 6.47992 3.74235 6.78107 3.8536 7.06205C3.96485 7.34303 4.12791 7.59834 4.33347 7.81339C4.53903 8.02845 4.78307 8.19904 5.05165 8.31542C5.32023 8.43181 5.60809 8.49171 5.8988 8.49171C6.48591 8.49171 7.04897 8.24771 7.46412 7.81339C7.87927 7.37907 8.1125 6.79001 8.1125 6.17579C8.1125 5.56157 7.87927 4.97251 7.46412 4.53819C7.04897 4.10387 6.48591 3.85987 5.8988 3.85987Z" fill="white" stroke="white" stroke-width="2" mask="url(#path-1-inside-1_1317_268)"/>
</svg>
