<svg width="45" height="49" viewBox="0 0 45 49" fill="none" xmlns="http://www.w3.org/2000/svg">
<path d="M30.0493 18.4628C30.0493 20.7359 29.2252 22.9077 27.7708 24.5022C26.3179 26.0953 24.3576 26.9803 22.3244 26.9803C20.2913 26.9803 18.331 26.0953 16.878 24.5022C15.4236 22.9077 14.5996 20.7359 14.5996 18.4628C14.5996 16.1898 15.4236 14.018 16.878 12.4234C18.331 10.8304 20.2913 9.94531 22.3244 9.94531C24.3576 9.94531 26.3179 10.8304 27.7708 12.4234C29.2252 14.018 30.0493 16.1898 30.0493 18.4628Z" fill="white" stroke="white"/>
<path d="M6.66165 38.1407L7.11864 38.7676L7.50083 38.0925C9.38709 34.7603 13.5757 31.0951 22.3245 31.0951C31.0734 31.0951 35.2592 34.7572 37.1483 38.0926L37.5305 38.7675L37.9874 38.1407C40.3377 34.9162 41.8068 31.0342 42.2302 26.942C42.6537 22.8499 42.015 18.7085 40.3854 14.9933C38.7557 11.2779 36.1993 8.13599 33.0048 5.93385C29.8097 3.7313 26.1075 2.55973 22.3245 2.55951H22.3245C18.5416 2.55973 14.8393 3.7313 11.6442 5.93385C8.4497 8.13599 5.89334 11.2779 4.26365 14.9933C2.63403 18.7085 1.99531 22.8499 2.41879 26.942C2.84228 31.0342 4.31137 34.9162 6.66165 38.1407ZM0.5 24.4761C0.5 18.1032 2.80952 11.9994 6.90812 7.50583C11.0053 3.01375 16.5519 0.5 22.3245 0.5C28.0971 0.5 33.6437 3.01375 37.7409 7.50583C41.8395 11.9994 44.149 18.1032 44.149 24.4761C44.149 30.8491 41.8395 36.9528 37.7409 41.4464C33.6437 45.9385 28.0971 48.4522 22.3245 48.4522C16.5519 48.4522 11.0053 45.9385 6.90812 41.4464C2.80952 36.9528 0.5 30.8491 0.5 24.4761Z" fill="white" stroke="white"/>
</svg>
